<?xml version="1.0" standalone="no"?>
<!DOCTYPE svg PUBLIC "-//W3C//DTD SVG 20010904//EN"
 "http://www.w3.org/TR/2001/REC-SVG-20010904/DTD/svg10.dtd">
<svg version="1.0" xmlns="http://www.w3.org/2000/svg"
 width="4670.000000pt" height="4670.000000pt" viewBox="0 0 4670.000000 4670.000000"
 preserveAspectRatio="xMidYMid meet">
<metadata>
Created by potrace 1.14, written by Peter Selinger 2001-2017
</metadata>
<g transform="translate(0.000000,4670.000000) scale(0.100000,-0.100000)"
fill="#000000" stroke="none">
<path d="M24979 38846 c-2 -2 -35 -7 -74 -11 -38 -4 -72 -8 -76 -10 -3 -2 -21
-7 -40 -10 -49 -9 -206 -63 -264 -92 -270 -135 -480 -341 -603 -593 -66 -137
-98 -228 -117 -340 -4 -19 -10 -57 -15 -85 -11 -60 -8 -4669 3 -4705 3 -14 12
-50 18 -80 42 -208 171 -452 321 -610 215 -226 489 -365 798 -407 71 -9 1966
-9 2045 1 33 4 68 9 77 12 10 3 29 7 42 10 109 19 333 117 439 190 175 122
346 311 423 469 14 28 29 57 33 65 5 8 17 35 26 60 10 25 21 54 26 65 14 32
40 144 55 230 11 66 13 492 11 2405 -3 2525 1 2343 -53 2515 -92 293 -284 547
-544 718 -120 78 -347 168 -464 183 -21 3 -59 9 -85 14 -43 8 -1973 14 -1982
6z"/>
<path d="M36309 38846 c-2 -2 -26 -6 -54 -10 -89 -10 -118 -17 -225 -52 -91
-31 -261 -108 -294 -135 -6 -5 -47 -35 -91 -67 -282 -207 -478 -555 -513 -912
-3 -36 -6 -1084 -6 -2330 1 -2503 -4 -2333 64 -2540 114 -349 360 -627 695
-785 51 -24 225 -87 233 -85 1 1 26 -3 55 -9 28 -6 70 -13 92 -17 57 -10 1941
-12 2028 -2 405 46 767 279 977 627 75 125 152 327 166 436 3 22 8 51 11 65 9
37 11 4574 2 4650 -40 348 -208 658 -474 875 -177 143 -400 243 -633 282 -40
7 -2026 16 -2033 9z"/>
<path d="M20827 36464 c-1 -1 -60 -5 -132 -9 -71 -4 -136 -8 -145 -10 -8 -2
-51 -6 -95 -10 -74 -6 -117 -11 -172 -20 -12 -2 -57 -9 -100 -15 -43 -7 -87
-14 -98 -16 -11 -3 -45 -9 -75 -15 -279 -53 -717 -188 -953 -293 -194 -87
-280 -127 -382 -180 -646 -338 -1225 -832 -1668 -1424 -74 -98 -267 -385 -267
-396 0 -4 -12 -25 -27 -49 -81 -125 -261 -491 -336 -682 -103 -264 -207 -603
-240 -785 -3 -14 -15 -74 -27 -135 -11 -60 -23 -128 -26 -150 -3 -22 -9 -65
-14 -95 -5 -30 -12 -89 -15 -130 -4 -41 -8 -81 -10 -87 -15 -47 -19 -583 -20
-2728 l0 -2430 1223 -3 1222 -2 1 32 c4 99 39 263 80 376 37 100 97 221 153
307 69 105 87 127 211 250 233 234 556 384 886 412 102 8 22931 9 23044 0 680
-52 1243 -591 1333 -1277 10 -77 9 -14325 -1 -14430 -11 -112 -51 -310 -88
-440 -85 -289 -230 -571 -428 -830 -152 -197 -421 -436 -651 -576 -77 -46
-267 -143 -365 -185 -92 -39 -377 -120 -470 -133 -22 -3 -51 -8 -65 -11 -45
-9 -103 -15 -195 -22 -122 -9 -21059 -9 -21160 0 -79 8 -186 22 -235 32 -14 2
-50 10 -80 16 -90 18 -258 67 -360 106 -700 266 -1244 831 -1486 1546 -36 106
-89 329 -100 417 -4 30 -8 62 -10 70 -1 8 -3 23 -3 33 -1 16 -66 17 -1226 17
l-1226 0 5 -47 c3 -27 8 -82 11 -123 3 -41 8 -86 10 -100 2 -14 7 -50 10 -80
10 -88 44 -285 71 -410 14 -63 27 -122 29 -131 29 -135 156 -532 208 -650 8
-19 31 -74 52 -124 134 -322 362 -719 588 -1020 199 -266 495 -582 732 -785
104 -88 255 -207 327 -258 18 -13 60 -42 93 -65 62 -45 289 -189 315 -201 8
-3 42 -22 75 -41 112 -65 332 -174 466 -230 74 -31 148 -63 165 -70 56 -26
387 -133 519 -168 193 -52 464 -106 640 -126 50 -6 108 -13 130 -16 22 -3 87
-8 145 -12 135 -10 21330 -10 21470 -1 58 4 125 10 150 12 126 14 165 19 238
30 15 3 45 7 67 11 690 106 1435 407 2027 820 322 224 663 530 908 814 30 35
60 69 65 75 40 42 221 283 294 391 386 568 667 1249 775 1878 3 15 7 35 10 45
5 19 9 40 30 202 21 157 24 189 33 310 10 132 11 19279 1 19415 -29 408 -113
828 -243 1220 -42 127 -87 250 -105 290 -4 11 -34 79 -65 150 -124 282 -288
573 -474 842 -30 43 -58 82 -63 88 -4 5 -45 57 -90 115 -73 94 -121 152 -238
285 -99 112 -324 328 -475 456 -731 617 -1641 1012 -2600 1128 -238 29 -350
33 -924 35 -356 1 -535 -2 -537 -9 -2 -5 -5 -752 -7 -1660 -2 -907 -6 -1663
-10 -1680 -3 -16 -13 -77 -21 -135 -20 -137 -22 -147 -52 -265 -63 -254 -168
-519 -282 -717 -12 -21 -31 -54 -43 -75 -89 -157 -262 -382 -410 -534 -100
-102 -242 -229 -299 -269 -19 -13 -37 -27 -40 -30 -9 -11 -162 -116 -231 -158
-319 -194 -696 -333 -1049 -387 -58 -9 -116 -18 -130 -21 -157 -26 -1842 -26
-2020 1 -14 2 -41 6 -60 9 -192 27 -487 101 -605 151 -16 7 -61 25 -100 40
-98 38 -308 144 -407 206 -90 55 -250 166 -284 195 -12 11 -41 35 -65 54 -36
30 -82 71 -187 169 -21 20 -126 133 -167 181 -204 236 -398 566 -508 865 -57
155 -112 350 -132 470 -10 61 -36 226 -41 265 -3 25 -7 783 -9 1685 -2 902 -4
1642 -4 1645 -1 3 -937 5 -2081 5 l-2080 0 0 -65 c-2 -1730 -8 -3234 -13
-3265 -6 -40 -14 -99 -23 -165 -2 -19 -11 -69 -20 -110 -9 -41 -18 -86 -20
-100 -27 -144 -149 -482 -232 -645 -62 -121 -124 -229 -134 -233 -4 -2 -8 -8
-8 -14 0 -17 -168 -251 -235 -327 -98 -112 -202 -218 -304 -311 -200 -181
-508 -376 -781 -492 -222 -95 -534 -181 -735 -204 -33 -3 -63 -8 -66 -10 -45
-26 -1846 -25 -2029 2 -77 11 -275 46 -281 49 -3 2 -19 7 -35 9 -50 10 -67 14
-158 41 -217 63 -504 189 -660 289 -31 20 -58 36 -61 36 -12 0 -279 192 -305
220 -3 3 -32 28 -65 56 -435 372 -777 934 -910 1494 -32 136 -53 251 -61 335
-3 33 -8 71 -12 85 -3 14 -7 709 -9 1545 -2 836 -4 1579 -6 1650 l-2 130 -778
0 c-428 0 -779 -1 -780 -1z"/>
<path d="M8635 27324 c-160 -26 -178 -29 -260 -50 -291 -74 -591 -216 -833
-393 -152 -111 -343 -288 -437 -406 -22 -27 -48 -58 -57 -69 -10 -11 -30 -38
-45 -60 -15 -23 -31 -43 -34 -46 -19 -17 -145 -234 -192 -330 -95 -199 -155
-372 -203 -595 -47 -216 -59 -573 -28 -790 4 -27 8 -54 9 -60 15 -126 89 -410
131 -502 7 -17 14 -35 14 -39 0 -17 104 -232 150 -309 16 -27 34 -59 39 -70 5
-11 46 -72 91 -135 375 -526 922 -876 1555 -996 166 -32 255 -39 475 -38 125
0 236 7 310 17 133 20 119 17 275 56 603 151 1116 522 1468 1061 l42 65 5187
0 5187 1 70 -108 c302 -458 758 -804 1291 -976 192 -62 281 -81 525 -111 71
-9 446 -7 500 3 17 3 66 10 109 16 280 41 599 154 856 304 82 47 240 152 250
165 3 3 34 28 70 56 104 79 308 290 401 415 287 387 440 773 494 1253 19 160
7 529 -20 627 -2 8 -6 33 -10 54 -35 240 -177 613 -319 835 -22 36 -45 73 -51
82 -149 248 -478 564 -775 744 -184 112 -480 239 -629 270 -9 2 -54 12 -101
23 -47 11 -105 23 -130 27 -25 3 -52 8 -60 10 -73 19 -511 27 -631 12 -121
-16 -264 -44 -364 -72 -49 -14 -97 -27 -105 -29 -54 -13 -284 -109 -380 -158
-115 -60 -312 -187 -425 -275 -84 -66 -288 -272 -368 -373 -38 -47 -98 -130
-135 -185 l-67 -100 -5185 0 -5185 0 -70 106 c-273 412 -629 705 -1109 915
-69 29 -237 84 -336 109 -110 28 -128 31 -315 61 -22 3 -143 7 -270 9 -201 2
-248 -1 -370 -21z m492 -1558 c24 -4 44 -7 45 -7 12 5 193 -66 245 -95 226
-126 395 -359 438 -604 13 -74 15 -98 15 -181 1 -284 -157 -571 -400 -731 -88
-58 -230 -112 -350 -134 -44 -7 -214 -8 -257 0 -244 45 -448 165 -580 341
-209 278 -238 657 -75 955 133 244 363 408 635 454 76 13 213 14 284 2z
m14658 -10 c258 -59 473 -224 593 -453 75 -143 102 -262 98 -432 -4 -134 -5
-142 -37 -247 -42 -135 -123 -266 -227 -366 -176 -169 -376 -250 -617 -250
-335 1 -643 190 -792 487 -28 54 -71 185 -80 243 -16 96 -8 282 15 371 91 347
388 614 737 659 88 12 230 6 310 -12z"/>
<path d="M2265 22509 c-236 -23 -360 -48 -554 -110 -167 -54 -407 -160 -490
-218 -14 -10 -33 -20 -41 -23 -31 -12 -237 -162 -325 -238 -96 -83 -244 -234
-292 -297 -15 -21 -33 -42 -39 -48 -6 -5 -22 -26 -34 -45 -13 -19 -27 -37 -30
-40 -17 -15 -135 -209 -182 -300 -146 -282 -228 -558 -268 -905 -18 -157 -2
-516 30 -665 5 -25 12 -56 14 -70 6 -39 16 -79 38 -155 11 -38 21 -74 23 -80
1 -5 5 -17 8 -25 3 -8 20 -55 38 -105 18 -49 50 -125 71 -168 21 -43 38 -79
38 -82 0 -2 26 -48 57 -102 289 -500 737 -880 1278 -1081 93 -35 242 -80 328
-98 63 -14 188 -35 237 -40 30 -3 71 -7 90 -10 49 -7 360 -7 401 0 19 3 59 8
89 11 30 3 66 7 80 10 300 50 510 119 770 253 105 53 320 192 394 254 226 188
415 398 539 600 36 59 46 68 72 69 37 1 23594 1 23616 0 9 -1 43 -43 76 -93
106 -163 235 -315 384 -453 100 -93 128 -116 219 -182 380 -274 789 -426 1260
-469 129 -12 401 -6 489 11 9 1 43 6 76 10 32 3 62 8 65 10 3 2 25 6 48 10 80
12 297 76 412 122 250 99 466 225 670 392 101 83 308 296 383 396 290 386 461
827 503 1295 6 71 6 351 0 415 -23 240 -86 501 -176 725 -28 71 -144 302 -169
337 -10 16 -35 53 -55 83 -86 134 -186 257 -310 382 -407 411 -975 675 -1541
715 -170 12 -440 7 -524 -11 -12 -3 -42 -8 -65 -10 -22 -3 -52 -8 -66 -11 -14
-3 -38 -8 -55 -11 -16 -3 -63 -14 -105 -25 -41 -12 -82 -22 -90 -24 -74 -17
-294 -106 -415 -168 -314 -160 -603 -398 -821 -677 -62 -79 -144 -197 -144
-207 -1 -5 -9 -18 -19 -30 l-19 -23 -11826 0 -11826 0 -48 73 c-285 430 -647
738 -1094 931 -21 9 -53 23 -72 31 -92 41 -370 119 -461 131 -22 2 -47 7 -56
10 -9 2 -36 7 -60 9 -24 2 -66 7 -94 11 -71 9 -347 11 -430 3z m365 -1584 c68
-12 188 -55 251 -90 222 -126 367 -308 435 -550 26 -92 36 -275 19 -363 -4
-20 -9 -48 -11 -62 -14 -79 -77 -222 -136 -309 -80 -116 -232 -243 -361 -300
-125 -55 -197 -71 -347 -76 -496 -16 -914 397 -904 896 1 47 7 110 14 140 6
30 14 64 16 77 9 43 62 168 98 228 47 78 147 189 217 241 130 98 305 167 454
180 38 3 71 6 72 7 3 3 143 -11 183 -19z m27816 10 c190 -16 397 -114 534
-254 175 -178 264 -405 255 -651 -5 -130 -8 -149 -39 -242 -120 -368 -445
-609 -826 -612 -63 0 -137 3 -165 7 -69 11 -222 63 -255 87 -16 11 -31 20 -35
20 -17 0 -133 89 -189 145 -179 181 -267 415 -253 673 13 227 99 416 262 578
146 145 335 233 534 250 42 4 78 8 79 10 2 1 9 1 15 -1 7 -2 44 -6 83 -10z"/>
<path d="M13466 17683 c-1 -1 -38 -5 -81 -8 -44 -3 -95 -8 -112 -10 -86 -12
-110 -16 -133 -21 -14 -2 -36 -6 -50 -9 -250 -47 -594 -183 -800 -316 -33 -21
-63 -39 -66 -39 -9 0 -165 -120 -249 -190 -431 -365 -734 -901 -825 -1460 -7
-41 -14 -83 -15 -92 -9 -47 -19 -217 -19 -323 1 -166 13 -296 41 -435 8 -41
17 -88 20 -105 3 -16 16 -68 29 -115 153 -530 465 -984 896 -1306 336 -251
701 -401 1138 -468 170 -27 475 -27 675 0 115 15 307 61 439 105 526 177 959
508 1269 971 l72 107 2895 -2 c2885 -2 2894 -2 2905 -22 12 -24 133 -204 149
-222 6 -7 16 -18 21 -25 63 -82 195 -221 301 -316 183 -166 460 -340 679 -427
39 -15 84 -33 100 -40 34 -15 182 -62 217 -69 13 -3 41 -10 63 -16 76 -19 270
-51 355 -57 156 -13 449 -7 535 11 11 2 43 7 70 10 28 4 68 11 90 16 22 5 51
11 65 13 14 3 51 13 84 22 32 9 64 18 70 19 15 3 87 26 111 36 11 4 43 16 70
26 28 9 92 37 143 61 52 23 95 43 96 43 8 0 191 109 256 152 211 141 440 359
597 568 73 98 160 238 234 380 63 120 166 409 193 540 13 66 36 189 41 225 26
190 24 530 -4 681 -5 27 -12 69 -16 94 -3 25 -20 99 -37 165 -127 501 -426
970 -823 1290 -38 31 -79 64 -90 72 -33 28 -237 157 -295 188 -30 16 -68 36
-85 45 -168 91 -468 186 -710 224 -164 26 -432 36 -570 22 -22 -2 -69 -7 -105
-11 -127 -12 -324 -57 -485 -110 -342 -111 -679 -319 -941 -580 -141 -139
-223 -238 -326 -389 l-73 -109 -2889 0 -2888 0 -24 29 c-13 16 -23 33 -24 37
0 11 -124 182 -179 247 -89 107 -245 265 -293 298 -12 9 -27 22 -33 28 -25 30
-331 244 -349 244 -2 0 -30 15 -63 33 -161 91 -451 198 -628 233 -11 2 -42 8
-70 14 -49 10 -105 19 -155 25 -83 11 -407 25 -414 18z m329 -1603 c204 -55
379 -175 498 -342 120 -168 167 -326 162 -538 -5 -221 -68 -386 -213 -558
-115 -137 -331 -262 -496 -288 -21 -3 -48 -8 -60 -10 -25 -5 -190 -5 -226 0
-345 51 -625 288 -729 616 -31 97 -33 114 -36 250 -4 145 19 254 78 383 119
257 355 444 627 496 30 6 64 13 75 15 53 10 245 -4 320 -24z m9950 17 c11 -3
40 -10 65 -17 25 -7 52 -14 61 -15 10 -2 52 -19 94 -39 270 -125 459 -374 504
-666 13 -83 13 -219 -1 -283 -4 -23 -11 -55 -14 -72 -14 -72 -62 -179 -130
-287 -37 -58 -166 -184 -239 -233 -101 -67 -245 -122 -367 -139 -47 -7 -195
-8 -228 -2 -14 3 -43 7 -65 11 -137 20 -321 117 -438 230 -141 137 -217 274
-258 465 -17 81 -19 255 -5 330 13 68 18 86 40 143 50 134 107 222 209 325
109 112 267 201 409 233 93 21 141 26 233 23 61 -1 119 -5 130 -7z"/>
</g>
</svg>
