<svg id="Camada_0_Imagem" data-name="Camada 0 Imagem" xmlns="http://www.w3.org/2000/svg" viewBox="0 0 1494.42 992.43"><defs><style>.cls-1{fill:#2a3d65;}</style></defs><path class="cls-1" d="M1842.45,576.34h-28V674a93.06,93.06,0,0,1-93.07,93.06h-42.89A93.06,93.06,0,0,1,1585.4,674V576.34H1452.13V674a93.06,93.06,0,0,1-93.07,93.06h-42.89A93.05,93.05,0,0,1,1223.11,674V576.34h-45.2a158.56,158.56,0,0,0-158.55,158.55V885.62h78.21a47,47,0,0,1,46.9-44.26h729.19a47,47,0,0,1,47,47v447.83a78.64,78.64,0,0,1-78.64,78.64H1177.4a79.93,79.93,0,0,1-79.51-71.87h-78.27a158.56,158.56,0,0,0,158.29,149.49h664.54A158.56,158.56,0,0,0,2001,1333.87v-599A158.56,158.56,0,0,0,1842.45,576.34Z" transform="translate(-506.58 -500)"/><rect class="cls-1" x="760.95" width="138.64" height="222.64" rx="42"/><rect class="cls-1" x="1124.02" width="138.64" height="222.64" rx="42"/><rect class="cls-1" x="497.46" y="716" width="191.49" height="80.3"/><path class="cls-1" d="M941,1177.41a78.74,78.74,0,1,0,78.74,78.74A78.74,78.74,0,0,0,941,1177.41Zm0,107.08a28.34,28.34,0,1,1,28.34-28.34A28.34,28.34,0,0,1,941,1284.49Z" transform="translate(-506.58 -500)"/><path class="cls-1" d="M1261.66,1177.41a78.74,78.74,0,1,0,78.74,78.74A78.74,78.74,0,0,0,1261.66,1177.41Zm0,107.08a28.34,28.34,0,1,1,28.34-28.34A28.34,28.34,0,0,1,1261.66,1284.49Z" transform="translate(-506.58 -500)"/><rect class="cls-1" x="140.53" y="561.3" width="766.98" height="80.3"/><path class="cls-1" d="M585.32,1022.71a78.74,78.74,0,1,0,78.74,78.74A78.74,78.74,0,0,0,585.32,1022.71Zm0,107.08a28.34,28.34,0,1,1,28.34-28.34A28.34,28.34,0,0,1,585.32,1129.79Z" transform="translate(-506.58 -500)"/><path class="cls-1" d="M1477.91,1022.71a78.74,78.74,0,1,0,78.74,78.74A78.73,78.73,0,0,0,1477.91,1022.71Zm0,107.08a28.34,28.34,0,1,1,28.35-28.34A28.34,28.34,0,0,1,1477.91,1129.79Z" transform="translate(-506.58 -500)"/><rect class="cls-1" x="354.99" y="406.6" width="333.96" height="80.3"/><path class="cls-1" d="M794.17,868a78.74,78.74,0,1,0,78.74,78.73A78.73,78.73,0,0,0,794.17,868Zm0,107.08a28.35,28.35,0,1,1,28.34-28.35A28.34,28.34,0,0,1,794.17,975.09Z" transform="translate(-506.58 -500)"/><path class="cls-1" d="M1261.66,868a78.74,78.74,0,1,0,78.74,78.73A78.73,78.73,0,0,0,1261.66,868Zm0,107.08A28.35,28.35,0,1,1,1290,946.74,28.34,28.34,0,0,1,1261.66,975.09Z" transform="translate(-506.58 -500)"/></svg>